<?xml version="1.0" encoding="UTF-8"?>
<svg version="1.1" xmlns="http://www.w3.org/2000/svg" width="1254" height="1254">
<path d="M0 0 C413.82 0 827.64 0 1254 0 C1254 413.82 1254 827.64 1254 1254 C840.18 1254 426.36 1254 0 1254 C0 840.18 0 426.36 0 0 Z " fill="#FDFDFD" transform="translate(0,0)"/>
<path d="M0 0 C4.5143651 0.01135507 9.02868511 -0.00091077 13.54304731 -0.00984204 C22.32863991 -0.02360669 31.11408654 -0.01634812 39.89967189 -0.00116646 C50.15749746 0.0158724 60.41528848 0.01246185 70.67312386 0.00873946 C88.97568553 0.00289333 107.27817786 0.01691228 125.58072126 0.04168689 C143.30242727 0.06567214 161.02404098 0.07265831 178.74576032 0.06219471 C198.12176317 0.0507746 217.49772361 0.04886324 236.87372595 0.0632928 C238.94019842 0.06481846 241.00667089 0.06633881 243.07314336 0.06785381 C244.08953354 0.06861162 245.10592372 0.06936944 246.15311361 0.07015022 C253.29081192 0.0748788 260.42849116 0.0730523 267.56618917 0.06878841 C276.25664089 0.06385291 284.9470056 0.0698877 293.63743744 0.08968271 C298.06453354 0.09952075 302.49149739 0.1046972 306.91860044 0.09679019 C310.97723541 0.08968948 315.03560445 0.09663937 319.09420457 0.11439382 C320.55504686 0.1184094 322.01591375 0.1174876 323.4767466 0.11087496 C351.32812286 -0.00432706 373.21400652 11.98959187 392.99356306 30.57464588 C413.52317826 51.85382107 419.30641058 79.5595949 419.16665876 108.05242908 C419.16909499 109.82707418 419.17282229 111.6017179 419.17772138 113.37635791 C419.18701699 118.13641902 419.17780361 122.89627043 419.16438925 127.65631497 C419.15295674 132.6683322 419.15719105 137.68034088 419.15913618 142.69236743 C419.16001505 151.09855508 419.14902094 159.50466146 419.13052595 167.91082752 C419.10933012 177.59942083 419.10585827 187.28789555 419.11208791 196.97650737 C419.11780016 206.34388855 419.11211622 215.71122841 419.10091436 225.07860363 C419.0962965 229.04516549 419.09538218 233.01170184 419.09750021 236.97826564 C419.09939657 241.65291184 419.09117661 246.32743888 419.07543981 251.00205791 C419.07123176 252.70753092 419.07032266 254.41301611 419.07313001 256.11849201 C419.11274663 284.51126526 411.61916979 308.99114859 392.79434431 330.50823963 C392.07633649 331.33968494 391.35832868 332.17113025 390.61856306 333.02777088 C375.60746769 349.16964556 352.04793231 360.1331091 330.04913163 360.96589065 C325.92614742 361.04299351 321.80622548 361.03425453 317.68277204 361.00994861 C315.82299617 361.013742 313.96322315 361.01925036 312.10345685 361.02632129 C307.10136789 361.04015935 302.09962738 361.02918928 297.09755814 361.01261008 C291.83421781 360.99864585 286.57089539 361.00523242 281.30754316 361.00874317 C272.47406699 361.01143613 263.64072741 360.99804782 254.80728376 360.97479236 C244.62908885 360.94818025 234.45112201 360.94644164 224.27290422 360.95818073 C214.43565676 360.96900029 204.59849091 360.96273927 194.7612499 360.94862545 C190.59537079 360.94290262 186.42955213 360.94291889 182.26367223 360.94769084 C177.34933086 360.95250143 172.43523577 360.94219187 167.52094114 360.92073619 C165.72923523 360.9152236 163.93750539 360.91465139 162.14579809 360.91968906 C147.16016858 360.95650589 133.76299658 358.64894442 119.35684431 354.38323963 C118.34170759 354.08321033 117.32657087 353.78318103 116.28067243 353.47405994 C83.22811916 343.48497961 52.49319364 328.64080585 23.79434431 309.50823963 C26.46878755 303.04500179 33.29677926 300.00213165 39.41934431 297.25823963 C53.54895039 292.20431461 69.1975055 293.22465776 83.96475446 293.25286853 C86.37934205 293.25011394 88.79392872 293.24643121 91.20851362 293.24189746 C96.38113479 293.23382662 101.55371285 293.23160655 106.7263397 293.23384464 C114.2189661 293.23696261 121.71151803 293.22523332 129.20412557 293.20929484 C141.38328034 293.18341436 153.56243517 293.16335262 165.74160993 293.14984119 C166.83179387 293.14862563 166.83179387 293.14862563 167.94400172 293.14738552 C178.26386504 293.13615752 188.58372295 293.13088022 198.90359156 293.1279984 C199.99468507 293.12769242 199.99468507 293.12769242 201.10782087 293.12738025 C201.83431768 293.12718032 202.5608145 293.12698038 203.30932637 293.12677439 C215.44962801 293.12303389 227.58984817 293.10390215 239.73010898 293.07228589 C246.5317657 293.05512863 253.33326341 293.04562491 260.13493955 293.05522525 C266.52913204 293.06378828 272.92303624 293.05403147 279.31718862 293.03048503 C281.65639372 293.02518062 283.99562593 293.02662968 286.33482015 293.03552043 C305.35305043 293.10194877 322.31617537 291.16210991 336.95059431 277.54730213 C348.83364029 264.4054589 350.93655941 250.56493234 350.97134626 233.59344471 C350.97762001 232.18332748 350.9842676 230.77321188 350.99125898 229.36309803 C351.01219196 224.75133378 351.0226507 220.13956961 351.03262556 215.52777088 C351.03667702 213.93350382 351.04079406 212.33923693 351.04497564 210.7449702 C351.06400303 203.25278304 351.07823962 195.76060558 351.08658761 188.26839894 C351.09635351 179.64850597 351.12266635 171.02887021 351.1630885 162.40906781 C351.19333886 155.72683901 351.20806486 149.04468361 351.21136862 142.36238772 C351.21370871 138.3802927 351.22253265 134.39847324 351.24782979 130.41645229 C351.27127295 126.66606423 351.27527944 122.91613005 351.26506841 119.16568744 C351.26434457 117.1522224 351.28332002 115.13877955 351.30313337 113.12541187 C351.22138629 98.68706442 346.56339448 86.41256188 336.66934431 75.82073963 C324.62770901 64.3862456 311.81101053 61.05425073 295.64810407 61.09173572 C294.23788016 61.0843139 292.82766265 61.0755818 291.41745412 61.0656594 C287.58022084 61.04231088 283.74315092 61.03710276 279.9058553 61.03497183 C275.79228549 61.02937166 271.67880944 61.00643621 267.56529462 60.98542774 C260.50613682 60.95158241 253.44700813 60.92796727 246.38778913 60.91152942 C235.32482955 60.88559331 224.2620042 60.83949183 213.19912946 60.78973377 C209.47323876 60.77317506 205.74734755 60.75673562 202.02145612 60.74034107 C201.09765826 60.73625997 200.1738604 60.73217888 199.22206867 60.72797412 C192.65597891 60.69921812 186.08988147 60.67331438 179.52377546 60.64857471 C156.18247418 60.55974849 132.84202713 60.42675882 109.50137556 60.23089588 C108.78558655 60.22490627 108.06979753 60.21891666 107.33231795 60.21274555 C98.41241408 60.13792347 89.49253985 60.05991921 80.57267606 59.98047626 C70.63603972 59.89204788 60.69938687 59.80560967 50.76271856 59.72085369 C47.58089325 59.6933 44.39908314 59.66436213 41.21727216 59.63520801 C36.40766815 59.59198775 31.5980649 59.55824947 26.78835523 59.5293082 C24.68709587 59.51452184 22.5858616 59.49591124 20.48465955 59.47447574 C17.10238815 59.44027734 13.72017332 59.41691451 10.33780134 59.39520252 C9.30605724 59.38227633 8.27431314 59.36935014 7.21130407 59.35603225 C-16.61217285 59.25213347 -34.80386549 72.51366628 -51.20565569 88.50823963 C-67.30138225 104.54931176 -79.51438596 125.15680975 -90.76815569 144.75823963 C-91.28128314 145.65196277 -91.79441058 146.54568592 -92.32308733 147.46649158 C-94.56356635 151.42083323 -96.58086679 155.25468919 -98.20565569 159.50823963 C-98.86565569 159.50823963 -99.52565569 159.50823963 -100.20565569 159.50823963 C-100.36421038 160.0419115 -100.52276507 160.57558338 -100.68612444 161.12542713 C-102.04388006 165.4612434 -103.61146975 169.47171204 -105.70565569 173.50823963 C-107.67463306 177.30513329 -109.15716276 181.00108496 -110.33456194 185.10980213 C-111.12586795 187.28855498 -112.05191777 189.21723167 -113.11190569 191.27386463 C-115.15657232 195.29605261 -116.72990164 199.35241441 -118.14315569 203.63323963 C-118.39476458 204.39096668 -118.64637347 205.14869373 -118.90560687 205.92938221 C-129.16411426 237.87877947 -132.61515874 272.96603015 -117.51815569 303.94573963 C-113.49179308 311.68476111 -108.42459654 318.77397714 -103.35555804 325.85345447 C-101.85894077 328.00718522 -100.51347371 330.23585151 -99.20565569 332.50823963 C-124.08987054 323.48948244 -148.59493409 300.47558138 -164.20565569 279.50823963 C-164.5946303 278.99567615 -164.98360491 278.48311267 -165.38436663 277.95501697 C-188.99568873 246.74051738 -196.83342847 210.40276332 -196.54183733 171.78533924 C-196.51814818 168.44468038 -196.52132152 165.10482147 -196.52792132 161.764099 C-196.50675809 144.85117786 -196.29227186 127.43161463 -192.08065569 110.94573963 C-191.76415057 109.6704137 -191.76415057 109.6704137 -191.4412514 108.36932361 C-182.6301565 74.65609306 -162.06584772 44.05844386 -131.87704241 26.12493885 C-91.79217951 3.03385491 -45.28248128 -0.15943423 0 0 Z " fill="#EA080C" transform="translate(421.2056556940079,455.49176037311554)"/>
<path d="M0 0 C7.69088406 4.34261 12.64986689 9.92505383 15.80552673 18.17601204 C17.7022662 25.86966038 17.17737585 33.95422563 17.14257812 41.82983398 C17.14800414 43.89225762 17.15512949 45.95467737 17.16381836 48.01708984 C17.18199856 53.59773412 17.1750057 59.17808142 17.16230202 64.75873065 C17.15214553 70.61122078 17.16157517 76.46368619 17.16784668 82.31617737 C17.17511594 92.14385523 17.16555487 101.9714127 17.14648438 111.79907227 C17.12472317 123.14399986 17.13176459 134.4886398 17.15379 145.83356041 C17.17197174 155.59099068 17.17448856 165.34833462 17.16403532 175.10577637 C17.15781489 180.92599293 17.15692472 186.74607451 17.17018127 192.56628227 C17.18177928 198.04033929 17.17364182 203.51402736 17.15060425 208.98804474 C17.14533799 210.9910604 17.14679502 212.99410738 17.15565491 214.99711037 C17.20873847 228.22250709 17.10829583 239.7440956 7.41796875 249.84765625 C0.78651069 255.95899995 -6.0335799 258.27780831 -14.96484375 258.0390625 C-21.18591823 257.05566241 -26.29401132 254.03628269 -31.71679688 250.99023438 C-34.83335972 249.24303566 -37.97097581 247.53561927 -41.109375 245.828125 C-53.01981574 239.33152096 -64.85396621 232.70257487 -76.6171875 225.94287109 C-86.52117207 220.25347094 -96.49423554 214.68808013 -106.46875 209.12353516 C-109.13796716 207.63241502 -111.80393071 206.1356796 -114.46875 204.63671875 C-131.78328635 194.62736703 -131.78328635 194.62736703 -150.375 187.5 C-152.70845749 186.83376803 -155.04180086 186.16713617 -157.375 185.5 C-157.4677682 172.20869368 -157.53879995 158.91746467 -157.58224869 145.62590027 C-157.60310418 139.45377143 -157.63138522 133.28186445 -157.67675781 127.10986328 C-157.72028731 121.15114161 -157.74415244 115.19263307 -157.75450897 109.23376465 C-157.76188751 106.96281582 -157.77629607 104.69187837 -157.79792023 102.42102051 C-157.82704786 99.23485299 -157.83095198 96.04956095 -157.82910156 92.86328125 C-157.84348267 91.92891739 -157.85786377 90.99455353 -157.87268066 90.03187561 C-157.83054575 83.30661107 -156.47180409 77.88391934 -151.84123611 72.82403564 C-146.90927256 68.15525173 -140.73814597 65.14272957 -134.8125 61.9375 C-132.55871771 60.69745133 -130.30613419 59.45522167 -128.0546875 58.2109375 C-126.92901367 57.58928711 -125.80333984 56.96763672 -124.64355469 56.32714844 C-119.85960979 53.65288465 -115.14456469 50.86928595 -110.4375 48.0625 C-90.58546088 36.2499404 -70.5184725 24.80724715 -50.375 13.5 C-49.52341309 13.02127441 -48.67182617 12.54254883 -47.79443359 12.04931641 C-14.40376506 -6.70238248 -14.40376506 -6.70238248 0 0 Z " fill="#CF0D0F" transform="translate(1011.375,501.5)"/>
<path d="M0 0 C0.66 0 1.32 0 2 0 C2.58394531 1.80017578 2.58394531 1.80017578 3.1796875 3.63671875 C17.88940182 47.89603619 46.4261166 87.08613348 83 116 C84.21816406 117.03640625 84.21816406 117.03640625 85.4609375 118.09375 C135.04227266 160.1997454 200.71891083 183.53152606 264.125 193.875 C265.01131104 194.02052307 265.89762207 194.16604614 266.81079102 194.315979 C289.13931853 197.94045044 311.05634764 199.33455629 333.66455078 199.26074219 C337.16578118 199.2493706 340.66670684 199.25612476 344.16792679 199.26760674 C366.51694662 199.33007709 388.45093658 198.15146425 410.5 194.375 C411.63189255 194.18375549 411.63189255 194.18375549 412.78665161 193.98864746 C476.64286149 183.09976849 544.15989188 157.86159143 585.16015625 105.1796875 C587 103 587 103 590 101 C578.0347317 142.87843905 540.02109712 175.89225427 503.30444336 196.54345703 C484.83571427 206.68544777 465.86615869 215.01639824 446 222 C444.69258874 222.47232534 443.38528152 222.94493888 442.078125 223.41796875 C415.38830022 232.74733058 387.74736384 237.92893403 359.8125 241.75 C359.03530609 241.8570929 358.25811218 241.96418579 357.45736694 242.07452393 C338.84152597 244.61639846 320.53996557 245.1607356 301.75952148 245.13037109 C297.83899017 245.12503605 293.9185746 245.13032832 289.99804688 245.13671875 C278.7860386 245.14008857 267.58745843 245.09871319 256.38671875 244.5546875 C255.58087845 244.51594513 254.77503815 244.47720276 253.94477844 244.43728638 C250.49779937 244.24340635 247.33492745 243.84368215 244 243 C242.12361017 242.8088285 240.24679362 242.62079226 238.36791992 242.45581055 C216.67010807 240.51879314 195.11971297 236.26926172 174 231 C173.26942383 230.82033691 172.53884766 230.64067383 171.78613281 230.45556641 C148.47865099 224.63674041 125.73367349 216.18190159 104 206 C103.14116211 205.59813477 102.28232422 205.19626953 101.39746094 204.78222656 C60.13721433 185.26108053 22.87916571 157.44034415 -1 118 C-1.56589844 117.07703125 -2.13179688 116.1540625 -2.71484375 115.203125 C-16.12677114 92.13324481 -18.71792439 62.1994565 -12.921875 36.4453125 C-9.55034134 23.84491974 -5.06058089 12.00137761 0 0 Z " fill="#282D34" transform="translate(325,646)"/>
<path d="M0 0 C1.95764239 1.04372976 3.93192598 2.04956877 5.91113281 3.05175781 C48.7261074 24.91756997 86.16332245 58.27396974 111.84082031 98.98144531 C112.27652344 99.66932129 112.71222656 100.35719727 113.16113281 101.06591797 C114.46298347 103.13431885 115.74913273 105.21146511 117.02832031 107.29394531 C117.42752686 107.93460938 117.8267334 108.57527344 118.23803711 109.23535156 C119.16958798 110.78058808 120.01442185 112.37750999 120.84082031 113.98144531 C120.51082031 114.64144531 120.18082031 115.30144531 119.84082031 115.98144531 C118.89335938 114.90830078 118.89335938 114.90830078 117.92675781 113.81347656 C106.67091922 101.21404044 94.36745068 90.09143248 80.84082031 79.98144531 C80.13908691 79.45518555 79.43735352 78.92892578 78.71435547 78.38671875 C54.05441775 59.98765021 27.21545753 45.81578461 -1.58642578 34.95654297 C-3.77362132 34.12757552 -5.9475115 33.27529029 -8.11621094 32.39941406 C-23.00529447 26.4401799 -38.49812025 23.19497694 -54.15917969 19.98144531 C-54.91602051 19.82256836 -55.67286133 19.66369141 -56.45263672 19.5 C-109.41112343 8.5139969 -176.20227375 12.26176585 -225.65924072 35.57048035 C-232.47618827 38.41599077 -238.50870985 38.65773916 -245.82226562 38.54907227 C-247.1309964 38.5498024 -248.43972717 38.55053253 -249.78811646 38.55128479 C-253.33723393 38.55270505 -256.8854868 38.52354525 -260.43440533 38.488415 C-264.15790476 38.45691582 -267.88142938 38.45420238 -271.6050415 38.44828796 C-278.63844179 38.43281805 -285.67144818 38.39188388 -292.70467591 38.34154052 C-300.71925609 38.28543199 -308.73385622 38.2581068 -316.74858427 38.23306334 C-333.2190124 38.18096072 -349.68904559 38.09315386 -366.15917969 37.98144531 C-362.17862913 33.96628636 -358.21441764 30.64867402 -353.59667969 27.41894531 C-352.85562988 26.90009766 -352.11458008 26.38125 -351.35107422 25.84667969 C-306.20750212 -5.33350883 -253.66036928 -26.16845256 -199.15917969 -33.01855469 C-197.65798584 -33.21940674 -197.65798584 -33.21940674 -196.12646484 -33.42431641 C-130.50558625 -42.07836789 -58.72899566 -31.58883854 0 0 Z " fill="#292E35" transform="translate(775.1591796875,401.0185546875)"/>
<path d="M0 0 C1.10617676 0.66491455 2.21235352 1.3298291 3.35205078 2.01489258 C4.53706339 2.70382143 5.72345072 3.39039053 6.91113281 4.07470703 C9.32498838 5.46929085 11.73138435 6.87553738 14.13232422 8.29223633 C18.26772461 10.72714908 22.45007667 13.07601773 26.63623047 15.42236328 C35.6765567 20.49026015 44.67467444 25.63445676 53.66088867 30.79760742 C58.33479416 33.47916054 63.02681847 36.12181014 67.74658203 38.72192383 C68.77525391 39.29233398 69.80392578 39.86274414 70.86376953 40.45043945 C72.83458757 41.54183356 74.80959081 42.62571933 76.78955078 43.70043945 C84.31880115 47.88395303 92.79122583 52.71924115 95.60205078 61.32739258 C96.32396158 67.72145969 95.21227529 72.00956774 91.60205078 77.32739258 C86.74163946 82.45396728 80.79747266 85.64799265 74.60205078 88.88989258 C72.63114079 89.94297603 70.66111593 90.99771741 68.69189453 92.05395508 C67.17958252 92.86268066 67.17958252 92.86268066 65.63671875 93.68774414 C60.77533678 96.31437658 55.96906265 99.03599245 51.16455078 101.76489258 C50.21322266 102.3044458 49.26189453 102.84399902 48.28173828 103.39990234 C46.35192933 104.49486058 44.4224045 105.5903197 42.49316406 106.6862793 C36.7557407 109.94307375 31.0107774 113.18657244 25.26464844 116.42797852 C20.25187195 119.25728623 15.24765247 122.10047676 10.25439453 124.96411133 C9.21412109 125.55836914 8.17384766 126.15262695 7.10205078 126.76489258 C5.11128081 127.90247542 3.12285874 129.04418044 1.13720703 130.19067383 C-5.67412082 134.07449687 -11.34741079 137.03358016 -19.39794922 136.32739258 C-26.12432231 134.3212813 -29.99051778 130.44847287 -33.4592514 124.51063824 C-34.52598194 122.02961103 -34.65941525 120.27271339 -34.67883301 117.57905579 C-34.6902533 116.62735001 -34.70167358 115.67564423 -34.71343994 114.69509888 C-34.71567566 113.65763519 -34.71791138 112.62017151 -34.72021484 111.55126953 C-34.73014465 110.45323502 -34.74007446 109.3552005 -34.75030518 108.22389221 C-34.77953701 104.58779397 -34.79315138 100.95187032 -34.80419922 97.31567383 C-34.81570442 94.78704321 -34.82721986 92.25841263 -34.83874512 89.7297821 C-34.85707674 85.10250884 -34.86967769 80.47528787 -34.87573862 75.84798747 C-34.8846878 69.05423584 -34.91972989 62.26129147 -34.97773981 55.46778518 C-35.02633902 49.56995413 -35.04163488 43.67232207 -35.04508972 37.77428246 C-35.05113306 35.2724894 -35.06715751 32.77069934 -35.09346008 30.26903725 C-35.12769409 26.76223839 -35.12379509 23.25738791 -35.11083984 19.75048828 C-35.12926941 18.72314575 -35.14769897 17.69580322 -35.16668701 16.6373291 C-35.08387676 9.45683432 -33.2555371 4.68578066 -28.39794922 -0.67260742 C-19.23708184 -7.73526091 -9.35522807 -5.36010532 0 0 Z " fill="#E5090E" transform="translate(542.39794921875,566.672607421875)"/>
<path d="M0 0 C1.53847997 -0.00186973 3.07695947 -0.00417109 4.61543822 -0.00686532 C8.83103188 -0.0129691 13.04660567 -0.01285142 17.26220274 -0.01167095 C21.81296817 -0.01146659 26.36372728 -0.01698882 30.91448975 -0.02172852 C39.82356707 -0.03002654 48.73263779 -0.03278292 57.64171866 -0.03334089 C64.88024412 -0.03381621 72.1187674 -0.03587175 79.35729218 -0.03904152 C99.875326 -0.0478438 120.3933546 -0.05246126 140.91139033 -0.05171105 C142.01697857 -0.05167109 143.12256681 -0.05163113 144.26165771 -0.05158997 C145.92206088 -0.05152864 145.92206088 -0.05152864 147.61600754 -0.05146609 C165.57681616 -0.05105917 183.53760387 -0.06064134 201.49840644 -0.07472833 C219.93596284 -0.0890754 238.37350903 -0.09599952 256.81107116 -0.09513456 C267.16440321 -0.09480213 277.51771331 -0.09756941 287.87104034 -0.10831261 C296.68056472 -0.11739539 305.49005716 -0.11961102 314.29958418 -0.11280318 C318.79624936 -0.10952743 323.2928532 -0.10951928 327.78951263 -0.11815643 C331.9023138 -0.12597536 336.0150045 -0.12463761 340.12780282 -0.1158723 C341.61887716 -0.11432715 343.10995957 -0.11619131 344.60102442 -0.12173238 C346.62161032 -0.12874647 348.64222969 -0.1223304 350.66281509 -0.1151762 C351.78700733 -0.11539357 352.91119957 -0.11561094 354.06945825 -0.11583489 C356.89380252 0.1294982 358.54765968 0.66723279 360.94232178 2.13371277 C359.76218029 2.13314319 359.76218029 2.13314319 358.55819756 2.1325621 C311.97932713 2.11020796 265.40045728 2.09303833 218.82158256 2.08264744 C213.23495721 2.08139666 207.64833187 2.08010234 202.06170654 2.07878113 C200.94946016 2.07851882 199.83721377 2.07825651 198.69126295 2.07798625 C180.65679455 2.07362909 162.62232932 2.06574129 144.5878628 2.05655997 C126.09746526 2.0472247 107.60706939 2.04165743 89.1166696 2.03962427 C77.6973539 2.03824878 66.27804718 2.03389678 54.85873424 2.0257963 C47.03937543 2.02053041 39.22002128 2.01890811 31.40066082 2.02021139 C26.88216123 2.02085502 22.36367735 2.0198345 17.84518051 2.01450729 C13.71559269 2.00967385 9.58603128 2.00937375 5.45644229 2.01281387 C3.95576094 2.01323962 2.45507801 2.01194342 0.95439983 2.00882959 C-1.07205251 2.00486643 -3.0985147 2.00755605 -5.12496853 2.01066494 C-6.25463651 2.01028522 -7.38430449 2.0099055 -8.54820484 2.00951427 C-10.99698609 1.84925759 -10.99698609 1.84925759 -12.05767822 3.13371277 C-13.91539984 3.04386976 -15.77015807 2.88759416 -17.62017822 2.69621277 C-19.13804932 2.54345886 -19.13804932 2.54345886 -20.68658447 2.38761902 C-21.46904541 2.30382996 -22.25150635 2.22004089 -23.05767822 2.13371277 C-23.05767822 1.80371277 -23.05767822 1.47371277 -23.05767822 1.13371277 C-15.38634089 -0.09926803 -7.75243542 -0.00893198 0 0 Z " fill="#F7191A" transform="translate(401.05767822265625,455.8662872314453)"/>
<path d="M0 0 C0.66 0 1.32 0 2 0 C1.86722656 0.78503906 1.73445313 1.57007813 1.59765625 2.37890625 C1.42105469 3.42949219 1.24445313 4.48007812 1.0625 5.5625 C0.88847656 6.59503906 0.71445312 7.62757813 0.53515625 8.69140625 C0.35855469 9.78324219 0.18195313 10.87507812 0 12 C-0.17789062 12.99902344 -0.35578125 13.99804688 -0.5390625 15.02734375 C-4.40800043 48.37234273 3.53770717 75.37330869 22.85009766 102.34521484 C24.34671492 104.49894559 25.69218198 106.72761188 27 109 C22.59304516 107.41585562 18.67726244 105.16711145 14.6875 102.75 C14.02613037 102.35176025 13.36476074 101.95352051 12.68334961 101.54321289 C7.89400826 98.62537887 3.3915824 95.49534109 -1 92 C0.485 91.505 0.485 91.505 2 91 C4.43241903 92.41009799 6.59200257 94.06869525 8.84375 95.75 C9.5553125 96.1625 10.266875 96.575 11 97 C12.485 96.505 12.485 96.505 14 96 C13.38125 95.113125 12.7625 94.22625 12.125 93.3125 C10.30130938 90.46968815 9.16510282 88.13121382 8 85 C6.9453131 82.69031744 5.88015253 80.38601964 4.8046875 78.0859375 C4 76 4 76 4 73 C3.34 73 2.68 73 2 73 C1.80664062 72.27554688 1.61328125 71.55109375 1.4140625 70.8046875 C-0.20303149 64.76211265 -0.20303149 64.76211265 -2.125 58.8125 C-3.6127446 54.03046378 -4.81587897 48.84234392 -3 44 C-3.99 43.67 -4.98 43.34 -6 43 C-5.67 36.73 -5.34 30.46 -5 24 C-4.34 24 -3.68 24 -3 24 C-3.185625 22.7625 -3.37125 21.525 -3.5625 20.25 C-4.02848942 17.14340385 -3.85006944 15.01183545 -3 12 C-2.4793733 9.12435096 -1.98848028 6.24455167 -1.5 3.36328125 C-1 1 -1 1 0 0 Z " fill="#AF1C1E" transform="translate(295,679)"/>
<path d="M0 0 C1.40120943 0.00056617 2.80241945 0.00024356 4.20362854 -0.00088501 C7.9547407 -0.00145152 11.70572115 0.01018705 15.45680308 0.02426291 C19.39653374 0.03688924 23.33626846 0.03795003 27.27601624 0.04031372 C34.71289849 0.04649391 42.14972092 0.06285712 49.586577 0.0830127 C58.06317592 0.1054804 66.53977791 0.11639228 75.01639926 0.12640357 C92.43162156 0.14722702 109.84678587 0.18233457 127.26196289 0.22705078 C127.26196289 0.55705078 127.26196289 0.88705078 127.26196289 1.22705078 C126.54136216 1.23128272 125.82076143 1.23551466 125.07832432 1.23987484 C107.56970312 1.34303953 90.06112432 1.45165569 72.55257511 1.56639004 C64.08568281 1.62174158 55.6187863 1.67522669 47.15185547 1.72436523 C39.77476551 1.76718348 32.39770681 1.81345541 25.02066511 1.86392933 C21.11216073 1.89054936 17.20366262 1.91540282 13.29512215 1.9361248 C9.62046808 1.95566125 5.94587364 1.97979584 2.27127266 2.00754166 C0.27119068 2.02142219 -1.72892371 2.03035162 -3.72903442 2.03916931 C-4.90839066 2.04895813 -6.08774689 2.05874695 -7.30284119 2.0688324 C-8.33432754 2.07528495 -9.36581388 2.0817375 -10.4285574 2.08838558 C-12.70065071 1.96851237 -12.70065071 1.96851237 -13.73803711 3.22705078 C-15.28491211 3.19611328 -15.28491211 3.19611328 -16.86303711 3.16455078 C-26.30079252 3.31677264 -38.14659616 7.70985114 -45.73803711 13.22705078 C-45.73803711 14.21705078 -45.73803711 15.20705078 -45.73803711 16.22705078 C-43.75728684 17.58881659 -41.75724048 18.92298194 -39.73803711 20.22705078 C-39.73803711 20.88705078 -39.73803711 21.54705078 -39.73803711 22.22705078 C-43.84762478 20.77660807 -47.17062456 18.71594326 -50.73803711 16.22705078 C-48.06359387 9.76381295 -41.23560215 6.72094281 -35.11303711 3.97705078 C-23.98890166 -0.06240635 -11.68851825 -0.06597731 0 0 Z " fill="#D70000" transform="translate(495.738037109375,748.77294921875)"/>
<path d="M0 0 C0.33 0 0.66 0 1 0 C1.00423194 0.63261025 1.00846388 1.26522051 1.01282406 1.91700077 C1.11622329 17.32473978 1.22487471 32.7324315 1.33933926 48.1400919 C1.39456784 55.59118177 1.4480325 63.04227643 1.49731445 70.4934082 C1.54028359 76.98939888 1.58659309 83.48535578 1.63687855 89.9812941 C1.66337729 93.41938344 1.68822716 96.85746653 1.70907402 100.29559517 C1.73243454 104.13794543 1.76325414 107.98021658 1.79467773 111.82250977 C1.8004332 112.95683441 1.80618866 114.09115906 1.81211853 115.25985718 C1.86194348 120.61949965 2.13523426 125.71326613 3 131 C2.87890625 134.08984375 2.87890625 134.08984375 2.5625 136.9375 C2.46066406 137.89527344 2.35882812 138.85304688 2.25390625 139.83984375 C2.17011719 140.55269531 2.08632813 141.26554688 2 142 C1.01 142.33 0.02 142.66 -1 143 C-0.67 95.81 -0.34 48.62 0 0 Z " fill="#F41615" transform="translate(773,565)"/>
<path d="M0 0 C0.66 0 1.32 0 2 0 C1.86722656 0.78503906 1.73445313 1.57007813 1.59765625 2.37890625 C1.42105469 3.42949219 1.24445313 4.48007812 1.0625 5.5625 C0.88847656 6.59503906 0.71445312 7.62757813 0.53515625 8.69140625 C0.35855469 9.78324219 0.18195313 10.87507812 0 12 C-0.17402344 13.03769531 -0.34804688 14.07539062 -0.52734375 15.14453125 C-1.05708437 19.46563858 -1.12587203 23.64957049 -1.09765625 27.99609375 C-1.0962413 28.82963882 -1.09482635 29.6631839 -1.09336853 30.52198792 C-1.08781168 33.16052986 -1.0752674 35.79898409 -1.0625 38.4375 C-1.05747942 40.23632689 -1.05291749 42.03515513 -1.04882812 43.83398438 C-1.03785643 48.22268958 -1.02062196 52.61132996 -1 57 C-1.66 56.67 -2.32 56.34 -3 56 C-4.46125461 47.89667897 -4.46125461 47.89667897 -3 44 C-3.99 43.67 -4.98 43.34 -6 43 C-5.67 36.73 -5.34 30.46 -5 24 C-4.34 24 -3.68 24 -3 24 C-3.185625 22.7625 -3.37125 21.525 -3.5625 20.25 C-4.02848942 17.14340385 -3.85006944 15.01183545 -3 12 C-2.4793733 9.12435096 -1.98848028 6.24455167 -1.5 3.36328125 C-1 1 -1 1 0 0 Z " fill="#B91113" transform="translate(295,679)"/>
<path d="M0 0 C1.65498253 -0.00021904 1.65498253 -0.00021904 3.34339905 -0.0004425 C6.96853645 0.00025083 10.59362164 0.00801606 14.21875 0.01586914 C16.74080375 0.01773538 19.26285787 0.01915831 21.78491211 0.02015686 C27.73099496 0.02357711 33.67706122 0.03144828 39.62313557 0.04150635 C46.39707111 0.05271414 53.17100758 0.05818966 59.9449501 0.06320179 C73.86956031 0.07363226 87.79415414 0.09120252 101.71875 0.11352539 C101.71875 0.44352539 101.71875 0.77352539 101.71875 1.11352539 C101.15791497 1.11775733 100.59707994 1.12198927 100.01924992 1.12634945 C86.39113704 1.22952386 72.76307775 1.33820469 59.1350565 1.45286465 C52.54472632 1.50814484 45.95439176 1.56157284 39.36401367 1.61083984 C33.00979033 1.6584084 26.65562292 1.7107482 20.30146599 1.76646614 C17.87126995 1.78692383 15.44105855 1.80563112 13.01083565 1.82259941 C9.61987857 1.84656809 6.22902834 1.87663259 2.83813477 1.90820312 C1.82249954 1.91395859 0.80686432 1.91971405 -0.23954773 1.92564392 C-1.15806519 1.93543274 -2.07658264 1.94522156 -3.02293396 1.95530701 C-3.82581565 1.96175956 -4.62869734 1.96821211 -5.45590878 1.97486019 C-7.30053673 1.91564112 -7.30053673 1.91564112 -8.28125 3.11352539 C-10.13897162 3.02368238 -11.99372985 2.86740679 -13.84375 2.67602539 C-15.36162109 2.52327148 -15.36162109 2.52327148 -16.91015625 2.36743164 C-17.69261719 2.28364258 -18.47507812 2.19985352 -19.28125 2.11352539 C-19.28125 1.78352539 -19.28125 1.45352539 -19.28125 1.11352539 C-12.81734516 0.14655593 -6.52979203 -0.02283983 0 0 Z " fill="#F11719" transform="translate(397.28125,455.886474609375)"/>
<path d="M0 0 C-0.33 0.99 -0.66 1.98 -1 3 C-3.765625 4.28125 -3.765625 4.28125 -7.25 5.5 C-13.4205239 7.66226883 -13.4205239 7.66226883 -19 11 C-19 11.99 -19 12.98 -19 14 C-17.01924973 15.36176581 -15.01920337 16.69593116 -13 18 C-13 18.66 -13 19.32 -13 20 C-17.10958767 18.54955729 -20.43258745 16.48889248 -24 14 C-21.53597832 8.04528093 -15.91217318 5.36796607 -10.2890625 2.7265625 C-3.69503546 0 -3.69503546 0 0 0 Z " fill="#C31215" transform="translate(469,751)"/>
<path d="M0 0 C0.99 0 1.98 0 3 0 C4.3125 1.5625 4.3125 1.5625 6 4 C9.7539794 8.68975398 13.52902625 13.26451313 19 16 C19 16.66 19 17.32 19 18 C19.66 18 20.32 18 21 18 C23.34869747 19.97290587 24.00102287 21.00306862 25 24 C25.99 24 26.98 24 28 24 C28 24.66 28 25.32 28 26 C28.99 26.33 29.98 26.66 31 27 C30.67 27.99 30.34 28.98 30 30 C22.56045941 23.69874977 15.1733838 17.37103307 8.25 10.5 C7.76176758 10.02079102 7.27353516 9.54158203 6.77050781 9.04785156 C3.99908491 6.25289216 1.87894518 3.45725913 0 0 Z " fill="#B01E21" transform="translate(262,740)"/>
<path d="M0 0 C0.86102882 2.88474901 1.05056945 5.07982116 0.66015625 8.05859375 C0.55977051 8.84476074 0.45938477 9.63092773 0.35595703 10.44091797 C0.23849121 11.28541504 0.12102539 12.12991211 0 13 C-0.12133301 13.88961426 -0.24266602 14.77922852 -0.36767578 15.69580078 C-0.75579771 18.48625518 -1.15701086 21.27451964 -1.5625 24.0625 C-1.70107422 25.02349609 -1.83964844 25.98449219 -1.98242188 26.97460938 C-2.32032052 29.31659655 -2.65953535 31.65838473 -3 34 C-6.34628605 28.98057092 -5.2053938 23.6392374 -4.16015625 17.94921875 C-3.80222907 16.19367114 -3.43622754 14.43975198 -3.0625 12.6875 C-2.88009766 11.79482422 -2.69769531 10.90214844 -2.50976562 9.98242188 C-1.80534288 6.57813888 -1.10048272 3.30144815 0 0 Z " fill="#DC282D" transform="translate(231,560)"/>
<path d="M0 0 C0.66 0.66 1.32 1.32 2 2 C-3.75 5 -3.75 5 -6 5 C-6 5.66 -6 6.32 -6 7 C-11.673142 9.45417612 -16.81839396 11.46246904 -23 12 C-23 11.01 -23 10.02 -23 9 C-22.17757812 8.76925781 -21.35515625 8.53851562 -20.5078125 8.30078125 C-13.24232551 6.17818517 -6.63155435 3.65259427 0 0 Z " fill="#F9151A" transform="translate(751,739)"/>
<path d="M0 0 C0.33 0 0.66 0 1 0 C1.02505615 1.22630127 1.0501123 2.45260254 1.07592773 3.71606445 C1.17003054 8.2615827 1.27024433 12.80694917 1.37231445 17.35229492 C1.41565241 19.32035779 1.45732832 21.28845798 1.49731445 23.2565918 C1.55504445 26.0839361 1.61873116 28.91109271 1.68359375 31.73828125 C1.70030624 32.61962234 1.71701874 33.50096344 1.73423767 34.40901184 C1.75418289 35.22963608 1.77412811 36.05026031 1.79467773 36.89575195 C1.81022202 37.61745071 1.8257663 38.33914948 1.84178162 39.0827179 C1.94195257 41.22108144 1.94195257 41.22108144 3 44 C3 47.10551666 2.4606285 48.35261084 1 51 C-0.21983748 48.56032503 -0.12051527 47.00095476 -0.11352539 44.27490234 C-0.11344986 43.29403656 -0.11337433 42.31317078 -0.11329651 41.30258179 C-0.10813522 40.24108917 -0.10297394 39.17959656 -0.09765625 38.0859375 C-0.0962413 37.00116119 -0.09482635 35.91638489 -0.09336853 34.79873657 C-0.08775802 31.32413 -0.07520372 27.84958719 -0.0625 24.375 C-0.05748635 22.02343843 -0.05292321 19.67187585 -0.04882812 17.3203125 C-0.03778518 11.54685314 -0.02103679 5.77343112 0 0 Z " fill="#C60000" transform="translate(509,642)"/>
<path d="M0 0 C0.33 0.99 0.66 1.98 1 3 C-2.5938856 9.39589811 -7.96181774 14.00068448 -14 18 C-14 15 -14 15 -11.4453125 12.1875 C-10.34590907 11.1173785 -9.23877513 10.05515539 -8.125 9 C-3.72524573 4.79933295 -3.72524573 4.79933295 0 0 Z " fill="#3E4147" transform="translate(905,757)"/>
<path d="M0 0 C5.75 4.625 5.75 4.625 8 8 C10.66653905 8.36460453 10.66653905 8.36460453 13.625 8.1875 C14.62789062 8.16042969 15.63078125 8.13335938 16.6640625 8.10546875 C17.43492187 8.07066406 18.20578125 8.03585937 19 8 C19.33 8.66 19.66 9.32 20 10 C15.81035489 12.09482256 11.67189322 11.22010295 7.375 9.8125 C3.89121337 7.94157755 1.61999808 5.93757361 -1 3 C-0.67 2.01 -0.34 1.02 0 0 Z " fill="#BF2023" transform="translate(512,692)"/>
<path d="M0 0 C0.33 0.66 0.66 1.32 1 2 C0.09176973 4.43557572 -0.86828071 6.76195517 -1.9375 9.125 C-2.22818359 9.78371094 -2.51886719 10.44242188 -2.81835938 11.12109375 C-3.53860198 12.75049505 -4.26841143 14.37566132 -5 16 C-5.5534764 13.92446352 -6 12.15634036 -6 10 C-6.66 9.67 -7.32 9.34 -8 9 C-5.36 6.03 -2.72 3.06 0 0 Z " fill="#393D43" transform="translate(914,747)"/>
<path d="M0 0 C0.66 0.33 1.32 0.66 2 1 C0.65319085 3.91271644 -0.87448745 6.29328277 -2.9375 8.75 C-3.44152344 9.36359375 -3.94554687 9.9771875 -4.46484375 10.609375 C-6 12 -6 12 -9 12 C-9.33 12.99 -9.66 13.98 -10 15 C-10.66 14.34 -11.32 13.68 -12 13 C-11.20335937 12.34644531 -11.20335937 12.34644531 -10.390625 11.6796875 C-6.12916103 8.08699343 -2.81865152 4.81519634 0 0 Z " fill="#F71E1F" transform="translate(764,725)"/>
<path d="M0 0 C0.66 0.33 1.32 0.66 2 1 C0.33333333 7.66666667 -1.33333333 14.33333333 -3 21 C-3.33 21 -3.66 21 -4 21 C-4.43533618 13.27681375 -3.47558895 6.9511779 0 0 Z " fill="#CB1519" transform="translate(301,657)"/>
<path d="M0 0 C0 0.33 0 0.66 0 1 C-0.78246094 1.06058594 -1.56492187 1.12117187 -2.37109375 1.18359375 C-3.88896484 1.30927734 -3.88896484 1.30927734 -5.4375 1.4375 C-6.44683594 1.51871094 -7.45617187 1.59992187 -8.49609375 1.68359375 C-10.93640779 1.73211468 -10.93640779 1.73211468 -12 3 C-14.33333333 3 -16.66666667 3 -19 3 C-20.67557379 3.28520405 -22.34817245 3.59955696 -24 4 C-24.33 3.34 -24.66 2.68 -25 2 C-16.58173087 0.30117812 -8.58077055 -0.24911914 0 0 Z " fill="#C80509" transform="translate(494,749)"/>
<path d="M0 0 C0.33 0 0.66 0 1 0 C1.33 2.31 1.66 4.62 2 7 C1.34 7 0.68 7 0 7 C0 14.92 0 22.84 0 31 C-0.33 31 -0.66 31 -1 31 C-1.02902168 26.58334712 -1.04680608 22.16671877 -1.0625 17.75 C-1.07087891 16.49574219 -1.07925781 15.24148438 -1.08789062 13.94921875 C-1.09111328 12.74394531 -1.09433594 11.53867187 -1.09765625 10.296875 C-1.10289307 9.18666992 -1.10812988 8.07646484 -1.11352539 6.93261719 C-1.01658493 4.42842621 -0.73230276 2.3818844 0 0 Z " fill="#50555B" transform="translate(311,691)"/>
<path d="M0 0 C0.66 0.33 1.32 0.66 2 1 C0.44816214 2.80193989 -1.11531189 4.59095676 -2.6875 6.375 C-3.12255859 6.88289063 -3.55761719 7.39078125 -4.00585938 7.9140625 C-6.7568016 11.01141968 -9.01795535 12.80897403 -13 14 C-8.88380164 9.08064098 -4.59589638 4.47352044 0 0 Z " fill="#ED1A21" transform="translate(273,493)"/>
<path d="M0 0 C0.66 0.66 1.32 1.32 2 2 C0.44632634 3.01365893 -1.11837836 4.01042256 -2.6875 5 C-3.99267578 5.8353125 -3.99267578 5.8353125 -5.32421875 6.6875 C-8.16973337 8.08325608 -9.8788594 8.26993648 -13 8 C-10.20375042 5.81302498 -7.36692128 4.00847187 -4.25 2.3125 C-3.45078125 1.87550781 -2.6515625 1.43851563 -1.828125 0.98828125 C-1.22484375 0.66214844 -0.6215625 0.33601562 0 0 Z " fill="#3D4247" transform="translate(855,799)"/>
<path d="M0 0 C0.13728516 0.90878906 0.13728516 0.90878906 0.27734375 1.8359375 C1.1792369 4.53674184 2.18227695 5.13435526 4.5625 6.625 C6.50390625 7.8515625 6.50390625 7.8515625 8 9 C8 9.66 8 10.32 8 11 C3.89041233 9.54955729 0.56741255 7.48889248 -3 5 C-1.125 1.125 -1.125 1.125 0 0 Z " fill="#C32226" transform="translate(448,760)"/>
<path d="M0 0 C2.49055871 3.76435592 2.03090984 6.86617377 1.625 11.25 C1.51414062 12.51328125 1.40328125 13.7765625 1.2890625 15.078125 C1.19367187 16.04234375 1.09828125 17.0065625 1 18 C0.01 18.33 -0.98 18.66 -2 19 C-1.855625 17.906875 -1.71125 16.81375 -1.5625 15.6875 C-0.90689307 10.470742 -0.45251777 5.23765253 0 0 Z " fill="#F81111" transform="translate(774,689)"/>
<path d="M0 0 C0 0.33 0 0.66 0 1 C-1.28197266 1.09087891 -1.28197266 1.09087891 -2.58984375 1.18359375 C-4.24693359 1.30927734 -4.24693359 1.30927734 -5.9375 1.4375 C-7.03964844 1.51871094 -8.14179688 1.59992188 -9.27734375 1.68359375 C-11.91109903 1.70418084 -11.91109903 1.70418084 -13 3 C-14.85772162 2.91015699 -16.71247985 2.75388139 -18.5625 2.5625 C-20.08037109 2.40974609 -20.08037109 2.40974609 -21.62890625 2.25390625 C-22.41136719 2.17011719 -23.19382812 2.08632813 -24 2 C-24 1.67 -24 1.34 -24 1 C-16.02509872 -0.32915021 -8.05813281 -0.08801359 0 0 Z " fill="#F6494A" transform="translate(402,456)"/>
<path d="M0 0 C0.66 0 1.32 0 2 0 C3.2890625 1.53125 3.2890625 1.53125 4.625 3.5 C5.07101562 4.1496875 5.51703125 4.799375 5.9765625 5.46875 C6.31429688 5.9740625 6.65203125 6.479375 7 7 C2.75354935 7 0.61475228 5.18249194 -3 3 C-2.01 2.67 -1.02 2.34 0 2 C0 1.34 0 0.68 0 0 Z " fill="#B02E2F" transform="translate(315,780)"/>
<path d="M0 0 C-3.24909747 3.24909747 -6.50658715 3.93904437 -11.0625 4.125 C-14.04428588 4.125 -17.01956372 4.08680882 -20 4 C-20 3.67 -20 3.34 -20 3 C-19.00419922 2.92652344 -19.00419922 2.92652344 -17.98828125 2.8515625 C-11.80687028 2.32817296 -6.08284136 -0.34759093 0 0 Z " fill="#E74346" transform="translate(1013,755)"/>
<path d="M0 0 C2.43823731 4.50974788 3 8.8898012 3 14 C2 16.1875 2 16.1875 1 18 C-0.59412284 14.81175432 -0.10174735 11.37103338 -0.0625 7.875 C-0.05798828 7.12089844 -0.05347656 6.36679687 -0.04882812 5.58984375 C-0.03703499 3.72652873 -0.01909942 1.86325445 0 0 Z " fill="#B90E10" transform="translate(509,675)"/>
<path d="M0 0 C3.05081496 0.31723076 3.90666113 0.88901781 5.921875 3.28515625 C6.52515625 4.20167969 7.1284375 5.11820312 7.75 6.0625 C8.36359375 6.98160156 8.9771875 7.90070313 9.609375 8.84765625 C10.06828125 9.55792969 10.5271875 10.26820313 11 11 C10.34 11.66 9.68 12.32 9 13 C7.3372974 10.32521756 6.00016187 8.0004856 5 5 C4.34 5 3.68 5 3 5 C1.375 2.5 1.375 2.5 0 0 Z " fill="#34373E" transform="translate(872,483)"/>
<path d="M0 0 C-0.66 1.32 -1.32 2.64 -2 4 C-3.65 3.67 -5.3 3.34 -7 3 C-7 3.66 -7 4.32 -7 5 C-9.31 5.33 -11.62 5.66 -14 6 C-10.292996 2.7563715 -5.02493834 0 0 0 Z " fill="#F52D30" transform="translate(316,470)"/>
<path d="M0 0 C-4.95 1.485 -4.95 1.485 -10 3 C-10.66 2.34 -11.32 1.68 -12 1 C-10.75835303 0.43945064 -9.50616116 -0.09777907 -8.25 -0.625 C-7.55390625 -0.92664063 -6.8578125 -1.22828125 -6.140625 -1.5390625 C-4 -2 -4 -2 0 0 Z M-12 3 C-10 4 -10 4 -10 4 Z " fill="#42474C" transform="translate(815,822)"/>
<path d="M0 0 C0.66 0 1.32 0 2 0 C2.66 2.64 3.32 5.28 4 8 C2.02 7.34 0.04 6.68 -2 6 C-1.34 4.02 -0.68 2.04 0 0 Z " fill="#535861" transform="translate(325,646)"/>
<path d="M0 0 C0.66 0.66 1.32 1.32 2 2 C0.75823305 2.70226141 -0.49385599 3.38629109 -1.75 4.0625 C-2.79414062 4.63677734 -2.79414062 4.63677734 -3.859375 5.22265625 C-6 6 -6 6 -10 5 C-6.7 3.35 -3.4 1.7 0 0 Z " fill="#FA3030" transform="translate(751,739)"/>
<path d="M0 0 C-1 3 -1 3 -3.3125 4.8125 C-4.199375 5.204375 -5.08625 5.59625 -6 6 C-8.16796875 5.07421875 -8.16796875 5.07421875 -10 4 C-8.71086513 3.32845067 -7.41859796 2.66291141 -6.125 2 C-5.40570312 1.62875 -4.68640625 1.2575 -3.9453125 0.875 C-2 0 -2 0 0 0 Z " fill="#3C4147" transform="translate(842,807)"/>
<path d="M0 0 C2.31 0.33 4.62 0.66 7 1 C7.33 1.99 7.66 2.98 8 4 C5.36 3.67 2.72 3.34 0 3 C0 2.01 0 1.02 0 0 Z " fill="#CA1A1B" transform="translate(855,685)"/>
<path d="M0 0 C0.99 0.33 1.98 0.66 3 1 C-1.75 4.875 -1.75 4.875 -4 6 C-4.66 5.34 -5.32 4.68 -6 4 C-3.1875 1.9375 -3.1875 1.9375 0 0 Z " fill="#3A3E43" transform="translate(867,791)"/>
<path d="M0 0 C-0.33 0.99 -0.66 1.98 -1 3 C-2.98 3.33 -4.96 3.66 -7 4 C-7.33 3.34 -7.66 2.68 -8 2 C-5.09399739 0.74335022 -3.20395416 0 0 0 Z " fill="#C9181C" transform="translate(469,751)"/>
<path d="M0 0 C1.32 0.66 2.64 1.32 4 2 C1.1875 3.5625 1.1875 3.5625 -2 5 C-2.99 4.67 -3.98 4.34 -5 4 C-3.35 2.68 -1.7 1.36 0 0 Z " fill="#F51D22" transform="translate(519,563)"/>
<path d="M0 0 C1.60031344 3.20062687 0.03173691 5.72271806 -1 9 C-1.99 9 -2.98 9 -4 9 C-2.25 2.25 -2.25 2.25 0 0 Z " fill="#E4232C" transform="translate(237,546)"/>
<path d="M0 0 C0.66 0.66 1.32 1.32 2 2 C-0.25 4.0625 -0.25 4.0625 -3 6 C-4.32 5.67 -5.64 5.34 -7 5 C-4.69 3.35 -2.38 1.7 0 0 Z " fill="#F3181D" transform="translate(283,486)"/>
<path d="M0 0 C1.04005702 3.38018531 1.08004482 6.4780279 1 10 C0.01 10.33 -0.98 10.66 -2 11 C-1.125 3.375 -1.125 3.375 0 0 Z " fill="#E43841" transform="translate(231,560)"/>
<path d="M0 0 C3.96 1.98 3.96 1.98 8 4 C6.02 4.99 6.02 4.99 4 6 C2.62437146 4.71034824 1.29233607 3.37310707 0 2 C0 1.34 0 0.68 0 0 Z " fill="#F11518" transform="translate(552,573)"/>
<path d="M0 0 C0.66 0 1.32 0 2 0 C5.22265625 5.2734375 5.22265625 5.2734375 6 7 C5.67 7.66 5.34 8.32 5 9 C0 3.375 0 3.375 0 0 Z " fill="#4B4D55" transform="translate(890,508)"/>
<path d="M0 0 C0.99 0 1.98 0 3 0 C3.66 1.65 4.32 3.3 5 5 C4.34 5.66 3.68 6.32 3 7 C0 2.25 0 2.25 0 0 Z " fill="#3A3D45" transform="translate(886,503)"/>
</svg>
